<?xml version="1.0" encoding="UTF-8" standalone="no"?>
<!-- Created with Inkscape (http://www.inkscape.org/) -->

<svg
   width="149.00867mm"
   height="40.190861mm"
   viewBox="0 0 149.00867 40.190861"
   version="1.1"
   id="svg1"
   xml:space="preserve"
   inkscape:version="1.4.2 (f4327f4, 2025-05-13)"
   sodipodi:docname="LogoFull.svg"
   xmlns:inkscape="http://www.inkscape.org/namespaces/inkscape"
   xmlns:sodipodi="http://sodipodi.sourceforge.net/DTD/sodipodi-0.dtd"
   xmlns="http://www.w3.org/2000/svg"
   xmlns:svg="http://www.w3.org/2000/svg"><sodipodi:namedview
     id="namedview1"
     pagecolor="#ffffff"
     bordercolor="#000000"
     borderopacity="0.25"
     inkscape:showpageshadow="2"
     inkscape:pageopacity="0.0"
     inkscape:pagecheckerboard="0"
     inkscape:deskcolor="#d1d1d1"
     inkscape:document-units="mm"
     showguides="true"
     inkscape:zoom="2.8284271"
     inkscape:cx="98.994949"
     inkscape:cy="91.039998"
     inkscape:window-width="1920"
     inkscape:window-height="1017"
     inkscape:window-x="1912"
     inkscape:window-y="-8"
     inkscape:window-maximized="1"
     inkscape:current-layer="layer1"
     inkscape:lockguides="false" /><defs
     id="defs1"><inkscape:path-effect
       effect="powerclip"
       message=""
       id="path-effect352"
       is_visible="true"
       lpeversion="1"
       inverse="true"
       flatten="false"
       hide_clip="false" /><inkscape:path-effect
       effect="fillet_chamfer"
       id="path-effect25"
       is_visible="true"
       lpeversion="1"
       nodesatellites_param="F,0,0,1,0,0,0,1 @ F,0,0,1,0,0,0,1 @ F,0,0,1,0,0,0,1 @ F,0,0,1,0,0,0,1"
       radius="0"
       unit="px"
       method="auto"
       mode="F"
       chamfer_steps="1"
       flexible="false"
       use_knot_distance="true"
       apply_no_radius="true"
       apply_with_radius="true"
       only_selected="false"
       hide_knots="false" /><inkscape:path-effect
       effect="fillet_chamfer"
       id="path-effect24"
       is_visible="true"
       lpeversion="1"
       nodesatellites_param="F,0,0,1,0,0,0,1 @ F,0,0,1,0,0,0,1 @ F,0,0,1,0,0,0,1 @ F,0,0,1,0,0,0,1"
       radius="0"
       unit="px"
       method="auto"
       mode="F"
       chamfer_steps="1"
       flexible="false"
       use_knot_distance="true"
       apply_no_radius="true"
       apply_with_radius="true"
       only_selected="false"
       hide_knots="false" /><inkscape:path-effect
       effect="spiro"
       id="path-effect16"
       is_visible="true"
       lpeversion="1" /><inkscape:perspective
       sodipodi:type="inkscape:persp3d"
       inkscape:vp_x="0 : -108.30914 : 1"
       inkscape:vp_y="0 : 999.99998 : 0"
       inkscape:vp_z="210.00001 : -108.30914 : 1"
       inkscape:persp3d-origin="105 : -157.80914 : 1"
       id="perspective10" /><rect
       x="108.80866"
       y="276.84229"
       width="96.412735"
       height="163.90166"
       id="rect1" /><clipPath
       clipPathUnits="userSpaceOnUse"
       id="clipPath352"><path
         id="path352"
         style="display:none;fill:#ffffff;fill-opacity:1;stroke-width:0.355044;stroke-linejoin:miter;stroke-dasharray:none"
         d="m 55.630726,77.726817 a 1.5505,1.5505 0 0 0 -1.335835,0.763778 H 34.829413 l -5.29e-4,-5.29e-4 h 0.01705 l -0.0083,-0.0052 -0.02274,-0.02377 -0.06821,0.02997 0.06356,-5.29e-4 -2.086178,3.613733 h -3.834379 v 1.34307 h 4.575431 l 0.0041,0.02946 0.11989,-0.0052 -0.05633,-0.08113 2.053105,-3.556889 h 18.597831 a 1.5505,1.5505 0 0 0 1.44694,0.994255 1.5505,1.5505 0 0 0 1.55081,-1.550293 1.5505,1.5505 0 0 0 -1.55081,-1.55081 z m -17.281631,6.360852 a 1.5505,1.5505 0 0 0 -1.401465,0.886768 h -2.085144 v 0.0067 l -0.0031,-0.0021 -1.577681,2.271179 h -0.753443 a 1.5505,1.5505 0 0 0 -1.426269,-0.943098 1.5505,1.5505 0 0 0 -1.55081,1.550293 1.5505,1.5505 0 0 0 1.55081,1.550293 1.5505,1.5505 0 0 0 1.364774,-0.814421 h 1.518254 v -0.0098 l 0.0041,0.0031 1.576131,-2.269112 h 1.38958 a 1.5505,1.5505 0 0 0 1.39423,0.871265 1.5505,1.5505 0 0 0 1.550293,-1.55081 1.5505,1.5505 0 0 0 -1.550293,-1.550293 z m 12.077816,6.332947 a 1.5505,1.5505 0 0 0 -1.435055,0.963249 H 34.225832 l -5.29e-4,-5.29e-4 h 0.01499 l -0.0775,-0.05477 -0.02687,0.112655 -3.14141,5.617228 H 28.88714 v 1.34307 h 2.89233 l 0.0021,0.001 5.29e-4,-0.001 h 0.0026 v -0.0047 l 3.170847,-5.669938 h 14.117485 a 1.5505,1.5505 0 0 0 1.353923,0.794784 1.5505,1.5505 0 0 0 1.550292,-1.55081 1.5505,1.5505 0 0 0 -1.550292,-1.550293 z m -16.273426,0.987537 v 0.001 l -0.0057,0.01033 z m 1.191142,1.771468 v 1.753381 h 1.403532 l -2.590023,4.630725 0.0098,-0.01964 -0.08578,0.05168 0.04341,0.03514 0.01705,-0.03566 -0.0863,8.569503 a 1.5505,1.5505 0 0 0 -0.882634,1.3994 1.5505,1.5505 0 0 0 1.55081,1.55029 1.5505,1.5505 0 0 0 1.550293,-1.55029 1.5505,1.5505 0 0 0 -0.874882,-1.39578 l 0.08268,-8.22069 2.050521,-3.66696 h 5.461165 v -1.34307 h -4.710306 l 0.0026,-0.0047 h 2.94038 v -1.75338 z m -1.188558,6.38824 10e-4,5.29e-4 -10e-4,0.0016 h -5.29e-4 z m 4.807459,2.105819 a 1.5505,1.5505 0 0 0 -1.550293,1.55081 1.5505,1.5505 0 0 0 0.888317,1.40198 l 0.0016,5.35264 h -5.29e-4 l -10e-4,1.2945 1.341521,-1.2945 h 0.0031 l -0.0016,-5.36194 a 1.5505,1.5505 0 0 0 0.869714,-1.39268 1.5505,1.5505 0 0 0 -1.550809,-1.55081 z m 0.684712,8.20725 v 0.0946 z" /><path
         id="lpe_path-effect352"
         style="fill:#ffffff;fill-opacity:1;stroke-width:0.355044;stroke-linejoin:miter;stroke-dasharray:none"
         class="powerclip"
         d="m 23.892693,70.48406 h 46.653521 v 48.65228 H 23.892693 Z m 31.738033,7.242757 a 1.5505,1.5505 0 0 0 -1.335835,0.763778 H 34.829413 l -5.29e-4,-5.29e-4 h 0.01705 l -0.0083,-0.0052 -0.02274,-0.02377 -0.06821,0.02997 0.06356,-5.29e-4 -2.086178,3.613733 h -3.834379 v 1.34307 h 4.575431 l 0.0041,0.02946 0.11989,-0.0052 -0.05633,-0.08113 2.053105,-3.556889 h 18.597831 a 1.5505,1.5505 0 0 0 1.44694,0.994255 1.5505,1.5505 0 0 0 1.55081,-1.550293 1.5505,1.5505 0 0 0 -1.55081,-1.55081 z m -17.281631,6.360852 a 1.5505,1.5505 0 0 0 -1.401465,0.886768 h -2.085144 v 0.0067 l -0.0031,-0.0021 -1.577681,2.271179 h -0.753443 a 1.5505,1.5505 0 0 0 -1.426269,-0.943098 1.5505,1.5505 0 0 0 -1.55081,1.550293 1.5505,1.5505 0 0 0 1.55081,1.550293 1.5505,1.5505 0 0 0 1.364774,-0.814421 h 1.518254 v -0.0098 l 0.0041,0.0031 1.576131,-2.269112 h 1.38958 a 1.5505,1.5505 0 0 0 1.39423,0.871265 1.5505,1.5505 0 0 0 1.550293,-1.55081 1.5505,1.5505 0 0 0 -1.550293,-1.550293 z m 12.077816,6.332947 a 1.5505,1.5505 0 0 0 -1.435055,0.963249 H 34.225832 l -5.29e-4,-5.29e-4 h 0.01499 l -0.0775,-0.05477 -0.02687,0.112655 -3.14141,5.617228 H 28.88714 v 1.34307 h 2.89233 l 0.0021,0.001 5.29e-4,-0.001 h 0.0026 v -0.0047 l 3.170847,-5.669938 h 14.117485 a 1.5505,1.5505 0 0 0 1.353923,0.794784 1.5505,1.5505 0 0 0 1.550292,-1.55081 1.5505,1.5505 0 0 0 -1.550292,-1.550293 z m -16.273426,0.987537 -0.0057,0.01133 0.0057,-0.01033 z m 1.191142,1.771468 v 1.753381 h 1.403532 l -2.590023,4.630725 0.0098,-0.01964 -0.08578,0.05168 0.04341,0.03514 0.01705,-0.03566 -0.0863,8.569503 a 1.5505,1.5505 0 0 0 -0.882634,1.3994 1.5505,1.5505 0 0 0 1.55081,1.55029 1.5505,1.5505 0 0 0 1.550293,-1.55029 1.5505,1.5505 0 0 0 -0.874882,-1.39578 l 0.08268,-8.22069 2.050521,-3.66696 h 5.461165 v -1.34307 h -4.710306 l 0.0026,-0.0047 h 2.94038 v -1.75338 z m -1.188558,6.38824 -5.29e-4,0.0021 h 5.29e-4 l 10e-4,-0.0016 z m 4.807459,2.105819 a 1.5505,1.5505 0 0 0 -1.550293,1.55081 1.5505,1.5505 0 0 0 0.888317,1.40198 l 0.0016,5.35264 h -5.29e-4 l -10e-4,1.2945 1.341521,-1.2945 h 0.0031 l -0.0016,-5.36194 a 1.5505,1.5505 0 0 0 0.869714,-1.39268 1.5505,1.5505 0 0 0 -1.550809,-1.55081 z m 0.684712,8.20725 v 0.0946 z" /></clipPath></defs><g
     inkscape:label="Capa 1"
     inkscape:groupmode="layer"
     id="layer1"
     style="display:inline"
     transform="translate(-28.88714,-75.48406)"><text
       xml:space="preserve"
       style="font-style:italic;font-variant:normal;font-weight:normal;font-stretch:normal;font-size:50.8px;font-family:roboto;-inkscape-font-specification:'roboto Italic';text-align:start;writing-mode:lr-tb;direction:ltr;text-anchor:start;fill:#0000ff;fill-opacity:1;stroke-width:0.264583"
       x="66.739601"
       y="157.70129"
       id="text10"><tspan
         sodipodi:role="line"
         id="tspan10"
         style="fill:#0000ff;stroke-width:0.264583"
         x="66.739601"
         y="157.70129" /></text><g
       id="text2"
       style="font-size:16.9333px;font-family:roboto;-inkscape-font-specification:roboto;stroke-width:0.264583"
       aria-label="FullConnect"
       inkscape:export-filename="text2.png"
       inkscape:export-xdpi="300"
       inkscape:export-ydpi="300"><path
         style="font-weight:bold;-inkscape-font-specification:'roboto Bold';fill:#2563eb"
         d="m 77.081483,93.564353 h -5.663726 v 2.290295 h 5.250315 v 2.381245 h -5.250315 v 5.258587 H 68.2593 V 91.183107 h 8.822183 z m 11.277843,9.930127 h -2.976557 v -1.02526 q -0.826821,0.62838 -1.513083,0.95911 -0.686262,0.32246 -1.637106,0.32246 -1.537888,0 -2.372977,-0.8847 -0.826822,-0.8847 -0.826822,-2.61275 v -6.044067 h 2.993093 v 4.605395 q 0,0.702798 0.04134,1.174086 0.04961,0.463016 0.214973,0.768946 0.157096,0.30592 0.471288,0.44648 0.322461,0.14056 0.892967,0.14056 0.380338,0 0.843358,-0.14056 0.46302,-0.14056 0.892967,-0.41341 v -6.581497 h 2.976557 z m 5.78775,0 H 91.170519 V 90.629137 h 2.976557 z m 5.787748,0 H 96.958268 V 90.629137 h 2.976556 z"
         id="path1" /><path
         style="font-weight:bold;-inkscape-font-specification:'roboto Bold'"
         d="m 108.47589,103.73425 q -1.37253,0 -2.53834,-0.40514 -1.15755,-0.40514 -1.99264,-1.20716 -0.83509,-0.80201 -1.29811,-2.0009 -0.45475,-1.198895 -0.45475,-2.769856 0,-1.463474 0.43821,-2.654096 0.43822,-1.190623 1.27331,-2.042249 0.80201,-0.818553 1.98437,-1.265036 1.19062,-0.446484 2.59622,-0.446484 0.77721,0 1.39732,0.09095 0.62839,0.08268 1.15755,0.223242 0.55397,0.157096 1.00046,0.355533 0.45475,0.190169 0.79375,0.355534 v 2.984824 h -0.36381 q -0.23151,-0.198437 -0.58704,-0.471288 -0.34726,-0.272851 -0.79375,-0.537434 -0.45475,-0.264582 -0.98391,-0.446483 -0.52917,-0.181901 -1.13275,-0.181901 -0.66972,0 -1.2733,0.214974 -0.60358,0.206705 -1.11621,0.69453 -0.48783,0.471288 -0.79375,1.2485 -0.29766,0.777212 -0.29766,1.885152 0,1.15755 0.32246,1.934762 0.33073,0.777216 0.82682,1.223696 0.50437,0.45475 1.12448,0.65319 0.62012,0.19017 1.2237,0.19017 0.57877,0 1.14101,-0.17364 0.57051,-0.17363 1.05006,-0.47128 0.40515,-0.23978 0.75241,-0.51263 0.34727,-0.272853 0.57051,-0.471291 h 0.33073 v 2.943481 q -0.46302,0.20671 -0.8847,0.38861 -0.42168,0.1819 -0.8847,0.31419 -0.60358,0.17363 -1.13275,0.26458 -0.52916,0.091 -1.4552,0.091 z m 16.01552,-4.878241 q 0,2.290291 -1.33945,3.613211 -1.33118,1.31464 -3.7455,1.31464 -2.41431,0 -3.75376,-1.31464 -1.33119,-1.32292 -1.33119,-3.613211 0,-2.306832 1.33945,-3.621477 1.34772,-1.314646 3.7455,-1.314646 2.43086,0 3.75377,1.322914 1.33118,1.322914 1.33118,3.613209 z m -3.66281,2.257221 q 0.28938,-0.35553 0.42994,-0.85162 0.14883,-0.504366 0.14883,-1.389065 0,-0.818553 -0.14883,-1.372523 -0.14882,-0.55397 -0.41341,-0.884699 -0.26458,-0.338997 -0.63665,-0.479556 -0.37207,-0.14056 -0.80202,-0.14056 -0.42994,0 -0.76894,0.115755 -0.33073,0.115755 -0.63665,0.46302 -0.27285,0.32246 -0.43822,0.884699 -0.15709,0.562238 -0.15709,1.413864 0,0.760676 0.14056,1.322915 0.14056,0.55397 0.41341,0.89297 0.26458,0.32246 0.62838,0.47128 0.37207,0.14883 0.84336,0.14883 0.40514,0 0.76894,-0.13229 0.37207,-0.14056 0.62839,-0.46302 z m 15.12256,2.38125 h -2.9931 v -4.605398 q 0,-0.562239 -0.0579,-1.116209 -0.0579,-0.562238 -0.19844,-0.826821 -0.16536,-0.305924 -0.48782,-0.446484 -0.3142,-0.140559 -0.8847,-0.140559 -0.40515,0 -0.82682,0.132291 -0.41342,0.132291 -0.90124,0.421679 v 6.581501 h -2.97656 v -9.285207 h 2.97656 v 1.025259 q 0.79375,-0.620116 1.52135,-0.950845 0.73587,-0.330728 1.62884,-0.330728 1.50481,0 2.34817,0.87643 0.85163,0.876431 0.85163,2.621024 z m 12.06332,0 h -2.99309 v -4.605398 q 0,-0.562239 -0.0579,-1.116209 -0.0579,-0.562238 -0.19844,-0.826821 -0.16536,-0.305924 -0.48782,-0.446484 -0.31419,-0.140559 -0.8847,-0.140559 -0.40514,0 -0.82682,0.132291 -0.41341,0.132291 -0.90124,0.421679 v 6.581501 h -2.97655 v -9.285207 h 2.97655 v 1.025259 q 0.79375,-0.620116 1.52136,-0.950845 0.73587,-0.330728 1.62883,-0.330728 1.50482,0 2.34818,0.87643 0.85162,0.876431 0.85162,2.621024 z m 11.88142,-4.092769 h -6.813 q 0.0661,1.091409 0.82682,1.670179 0.76894,0.57877 2.25722,0.57877 0.94258,0 1.82728,-0.33899 0.88469,-0.339 1.39732,-0.7276 h 0.33073 v 2.38951 q -1.00872,0.40514 -1.90169,0.58704 -0.89296,0.1819 -1.9761,0.1819 -2.79466,0 -4.28293,-1.25677 -1.48828,-1.25676 -1.48828,-3.580132 0,-2.298563 1.40559,-3.638014 1.41387,-1.347718 3.86953,-1.347718 2.26549,0 3.4065,1.149281 1.14101,1.141014 1.14101,3.290749 z m -2.96002,-1.744593 q -0.0248,-0.934308 -0.46302,-1.405596 -0.43821,-0.471288 -1.36425,-0.471288 -0.85989,0 -1.41387,0.446483 -0.55397,0.446484 -0.62011,1.430401 z m 9.89705,6.085402 q -1.21543,0 -2.22415,-0.28938 -1.00045,-0.28939 -1.74459,-0.89297 -0.73587,-0.60358 -1.14101,-1.52135 -0.40515,-0.91777 -0.40515,-2.149738 0,-1.29811 0.42995,-2.240686 0.43822,-0.942576 1.21543,-1.562692 0.75241,-0.587043 1.73632,-0.859894 0.98392,-0.272851 2.04225,-0.272851 0.95085,0 1.75286,0.206705 0.80202,0.206705 1.49655,0.537434 v 2.538341 h -0.42168 q -0.17363,-0.148828 -0.42168,-0.347265 -0.23978,-0.198437 -0.59531,-0.388606 -0.339,-0.1819 -0.74414,-0.297655 -0.40514,-0.124024 -0.94258,-0.124024 -1.19062,0 -1.83554,0.760676 -0.63665,0.752407 -0.63665,2.050517 0,1.339448 0.65319,2.033978 0.66145,0.69453 1.86861,0.69453 0.56224,0 1.00873,-0.12402 0.45475,-0.13229 0.7524,-0.30593 0.28112,-0.16536 0.4961,-0.34726 0.21497,-0.1819 0.39687,-0.35553 h 0.42168 v 2.53834 q -0.7028,0.33073 -1.47174,0.5209 -0.76068,0.19843 -1.68672,0.19843 z m 11.06288,-0.33073 q -0.47956,0.12403 -1.01699,0.19017 -0.53744,0.0744 -1.31465,0.0744 -1.73632,0 -2.58795,-0.7028 -0.84336,-0.7028 -0.84336,-2.40605 v -4.340813 h -1.22369 v -2.017444 h 1.22369 v -2.654096 h 2.97656 v 2.654096 h 2.78639 v 2.017444 h -2.78639 v 3.290749 q 0,0.487824 0.008,0.851624 0.008,0.3638 0.13229,0.65319 0.11575,0.28939 0.40514,0.46302 0.29766,0.16536 0.8599,0.16536 0.23151,0 0.60358,-0.0992 0.38033,-0.0992 0.52916,-0.1819 h 0.24805 z"
         id="path2" /></g><path
       style="font-style:italic;font-size:5.64444px;font-family:roboto;-inkscape-font-specification:'roboto Italic';stroke-width:0.264583"
       d="M 79.679635,110.87134 H 78.21616 l -0.840603,3.63801 h -0.551215 l 0.840603,-3.63801 h -1.463476 l 0.104731,-0.46578 h 3.478166 z m 2.160762,1.76388 q 0.01378,-0.0799 0.01929,-0.13504 0.0055,-0.0551 0.0055,-0.12127 0,-0.2949 -0.162608,-0.46027 -0.159853,-0.16536 -0.515386,-0.16536 -0.391363,0 -0.694531,0.24253 -0.303168,0.24254 -0.410655,0.63941 z m -1.036284,1.94579 q -0.639409,0 -1.003211,-0.30041 -0.363801,-0.30041 -0.363801,-0.87919 0,-0.84611 0.534678,-1.44969 0.534678,-0.60634 1.322916,-0.60634 0.523654,0 0.802017,0.26183 0.278364,0.25907 0.278364,0.73036 0,0.0827 -0.02481,0.26182 -0.02205,0.17915 -0.07441,0.41617 h -2.268249 q -0.01654,0.0799 -0.02481,0.1571 -0.0055,0.0772 -0.0055,0.14331 0,0.38861 0.237023,0.61185 0.237022,0.22049 0.672482,0.22049 0.303168,0 0.622872,-0.11851 0.322461,-0.11851 0.540191,-0.26734 h 0.03032 l -0.112999,0.55948 q -0.137804,0.0496 -0.248047,0.091 -0.110243,0.0413 -0.28112,0.0827 -0.170876,0.0413 -0.303168,0.0634 -0.132291,0.0221 -0.330729,0.0221 z m 3.241143,-0.003 q -0.292143,0 -0.518142,-0.0689 -0.223242,-0.0689 -0.391362,-0.21773 -0.162608,-0.14331 -0.250803,-0.36104 -0.08819,-0.21773 -0.08819,-0.50712 0,-0.4327 0.135047,-0.80753 0.135048,-0.37483 0.383095,-0.6587 0.239778,-0.27561 0.592556,-0.43546 0.352777,-0.16261 0.760676,-0.16261 0.270096,0 0.507118,0.0744 0.239778,0.0744 0.421679,0.17639 l -0.112999,0.55949 h -0.03032 q -0.05512,-0.0496 -0.137803,-0.11576 -0.08268,-0.0661 -0.195682,-0.12402 -0.112999,-0.0606 -0.250802,-0.0992 -0.137804,-0.0413 -0.314193,-0.0413 -0.534678,0 -0.873675,0.45199 -0.336241,0.452 -0.336241,1.09968 0,0.3886 0.198437,0.59807 0.201193,0.20946 0.570507,0.20946 0.173633,0 0.347266,-0.0496 0.173632,-0.0496 0.2949,-0.10749 0.135047,-0.0634 0.250802,-0.13505 0.115755,-0.0717 0.168121,-0.10748 h 0.03032 l -0.110243,0.56499 q -0.239779,0.10749 -0.507118,0.18742 -0.267339,0.0772 -0.542947,0.0772 z m 4.690839,-2.44464 q 0,0.0661 -0.01378,0.17914 -0.01102,0.113 -0.03307,0.19844 l -0.46302,1.99815 h -0.518142 l 0.405143,-1.75286 q 0.03307,-0.14607 0.04961,-0.25356 0.01929,-0.11024 0.01929,-0.21773 0,-0.23151 -0.115755,-0.34726 -0.112999,-0.11851 -0.410655,-0.11851 -0.209462,0 -0.463021,0.11575 -0.250803,0.11576 -0.490581,0.27561 l -0.531923,2.29856 H 85.65205 l 0.711067,-3.07853 h 0.518142 l -0.07993,0.34175 q 0.294899,-0.2067 0.551214,-0.31695 0.259071,-0.11024 0.531923,-0.11024 0.402387,0 0.625629,0.20395 0.225998,0.20119 0.225998,0.58429 z m 3.513995,0.38585 q 0,0.41341 -0.12678,0.79375 -0.126779,0.38034 -0.358289,0.66146 -0.239779,0.29214 -0.553971,0.4575 -0.314193,0.16261 -0.733116,0.16261 -0.548459,0 -0.857139,-0.31143 -0.305924,-0.3142 -0.305924,-0.86541 0,-0.41341 0.124023,-0.78824 0.126779,-0.37483 0.363802,-0.66697 0.228754,-0.28112 0.559483,-0.44924 0.333485,-0.16812 0.727604,-0.16812 0.531922,0 0.846114,0.30317 0.314193,0.30317 0.314193,0.87092 z m -0.843359,1.16306 q 0.148828,-0.22048 0.225998,-0.50987 0.07993,-0.28939 0.07993,-0.61185 0,-0.38585 -0.184657,-0.58429 -0.184657,-0.19844 -0.520898,-0.19844 -0.267339,0 -0.479557,0.12954 -0.212217,0.12678 -0.366557,0.35002 -0.148829,0.21773 -0.228755,0.50987 -0.07993,0.29215 -0.07993,0.60634 0,0.38034 0.184657,0.58429 0.184657,0.20395 0.523654,0.20395 0.264583,0 0.479557,-0.12678 0.214974,-0.12678 0.366558,-0.35278 z m 2.75883,-3.46163 -0.992186,4.28845 h -0.518142 l 0.992186,-4.28845 z m 3.059243,2.29857 q 0,0.41341 -0.126779,0.79375 -0.12678,0.38034 -0.35829,0.66146 -0.239778,0.29214 -0.553971,0.4575 -0.314192,0.16261 -0.733116,0.16261 -0.548458,0 -0.857139,-0.31143 -0.305924,-0.3142 -0.305924,-0.86541 0,-0.41341 0.124023,-0.78824 0.12678,-0.37483 0.363802,-0.66697 0.228754,-0.28112 0.559483,-0.44924 0.333485,-0.16812 0.727604,-0.16812 0.531922,0 0.846115,0.30317 0.314192,0.30317 0.314192,0.87092 z m -0.843359,1.16306 q 0.148828,-0.22048 0.225998,-0.50987 0.07993,-0.28939 0.07993,-0.61185 0,-0.38585 -0.184657,-0.58429 -0.184657,-0.19844 -0.520898,-0.19844 -0.26734,0 -0.479557,0.12954 -0.212218,0.12678 -0.366558,0.35002 -0.148828,0.21773 -0.228754,0.50987 -0.07993,0.29215 -0.07993,0.60634 0,0.38034 0.184657,0.58429 0.184657,0.20395 0.523655,0.20395 0.264583,0 0.479556,-0.12678 0.214974,-0.12678 0.366558,-0.35278 z m 4.442795,-2.25171 -0.62563,2.73678 q -0.1819,0.78273 -0.59807,1.14377 -0.413411,0.3638 -1.152039,0.3638 -0.237022,0 -0.479557,-0.0358 -0.239778,-0.0358 -0.440972,-0.0965 l 0.118511,-0.51538 h 0.02756 q 0.15434,0.0689 0.416167,0.13229 0.261827,0.0634 0.493338,0.0634 0.261827,0 0.443728,-0.0689 0.184657,-0.0661 0.303168,-0.18191 0.115755,-0.11575 0.187413,-0.27009 0.07441,-0.15159 0.115755,-0.34175 l 0.06339,-0.2701 q -0.278364,0.18741 -0.490582,0.28112 -0.212217,0.091 -0.542946,0.091 -0.44924,0 -0.702799,-0.27285 -0.253559,-0.27561 -0.253559,-0.77446 0,-0.39963 0.129536,-0.77445 0.132291,-0.37759 0.366557,-0.66973 0.228755,-0.28388 0.548459,-0.45475 0.322461,-0.17088 0.689019,-0.17088 0.264583,0 0.471289,0.0606 0.209464,0.0606 0.363804,0.1571 l 0.0634,-0.13229 z m -0.64492,0.55397 q -0.17639,-0.091 -0.363806,-0.14056 -0.184657,-0.0524 -0.374826,-0.0524 -0.270095,0 -0.493337,0.12403 -0.220486,0.12126 -0.380339,0.33899 -0.151584,0.20395 -0.237022,0.49334 -0.08268,0.28663 -0.08268,0.57327 0,0.32521 0.148828,0.50436 0.148828,0.17639 0.476801,0.17639 0.228754,0 0.46302,-0.0965 0.234266,-0.0965 0.460264,-0.24253 z m 2.19107,-0.55397 -0.71106,3.07853 h -0.52366 l 0.71107,-3.07853 z m 0.82958,-1.54065 -0.9784,1.03077 h -0.42995 l 0.70004,-1.03077 z m 1.73633,2.99586 q -0.42444,0.0165 -0.75516,0.0661 -0.32798,0.0469 -0.54295,0.13781 -0.22324,0.091 -0.339,0.24804 -0.11575,0.15434 -0.11575,0.38585 0,0.19844 0.13504,0.30317 0.13505,0.10473 0.41893,0.10473 0.2508,0 0.50987,-0.11024 0.26183,-0.113 0.48783,-0.2701 z m -0.30041,1.29535 q -0.0744,0.0441 -0.20395,0.12678 -0.12678,0.0799 -0.25907,0.1378 -0.14056,0.0634 -0.3142,0.10473 -0.17363,0.0441 -0.39963,0.0441 -0.36655,0 -0.59531,-0.21222 -0.22875,-0.21497 -0.22875,-0.55948 0,-0.36656 0.15985,-0.61736 0.16261,-0.25356 0.47956,-0.41341 0.31143,-0.1571 0.74965,-0.226 0.44097,-0.0717 1.00321,-0.0882 0.0165,-0.0772 0.0276,-0.13229 0.011,-0.0579 0.011,-0.11852 0,-0.13229 -0.0524,-0.21497 -0.0524,-0.0827 -0.14883,-0.13229 -0.0965,-0.0496 -0.226,-0.0661 -0.12678,-0.0193 -0.28112,-0.0193 -0.23426,0 -0.53467,0.0772 -0.30042,0.0744 -0.48783,0.14883 h -0.0276 l 0.10197,-0.51814 q 0.1571,-0.0413 0.46027,-0.0937 0.30317,-0.0524 0.58153,-0.0524 0.57326,0 0.8599,0.17915 0.28663,0.17914 0.28663,0.56775 0,0.0744 -0.0138,0.15985 -0.011,0.0827 -0.0276,0.1571 l -0.48232,2.0891 h -0.51538 z m 5.67476,-1.29535 q -0.42444,0.0165 -0.75517,0.0661 -0.32797,0.0469 -0.54295,0.13781 -0.22324,0.091 -0.33899,0.24804 -0.11576,0.15434 -0.11576,0.38585 0,0.19844 0.13505,0.30317 0.13505,0.10473 0.41892,0.10473 0.25081,0 0.50988,-0.11024 0.26182,-0.113 0.48782,-0.2701 z m -0.30042,1.29535 q -0.0744,0.0441 -0.20395,0.12678 -0.12678,0.0799 -0.25907,0.1378 -0.14056,0.0634 -0.31419,0.10473 -0.17363,0.0441 -0.39963,0.0441 -0.36656,0 -0.59531,-0.21222 -0.22876,-0.21497 -0.22876,-0.55948 0,-0.36656 0.15986,-0.61736 0.1626,-0.25356 0.47955,-0.41341 0.31144,-0.1571 0.74965,-0.226 0.44098,-0.0717 1.00322,-0.0882 0.0165,-0.0772 0.0276,-0.13229 0.011,-0.0579 0.011,-0.11852 0,-0.13229 -0.0524,-0.21497 -0.0524,-0.0827 -0.14883,-0.13229 -0.0965,-0.0496 -0.226,-0.0661 -0.12678,-0.0193 -0.28112,-0.0193 -0.23427,0 -0.53468,0.0772 -0.30041,0.0744 -0.48782,0.14883 h -0.0276 l 0.10197,-0.51814 q 0.1571,-0.0413 0.46026,-0.0937 0.30317,-0.0524 0.58154,-0.0524 0.57326,0 0.85989,0.17915 0.28663,0.17914 0.28663,0.56775 0,0.0744 -0.0138,0.15985 -0.011,0.0827 -0.0276,0.1571 l -0.48231,2.0891 h -0.51539 z m 5.72988,-2.75056 -0.0937,0.41892 h -1.06935 l -0.33073,1.41938 q -0.0276,0.10749 -0.0496,0.24805 -0.022,0.1378 -0.022,0.22048 0,0.2012 0.10198,0.30041 0.10197,0.0965 0.37758,0.0965 0.113,0 0.26734,-0.0386 0.15709,-0.0386 0.21221,-0.0606 h 0.0276 l -0.0965,0.44648 q -0.15434,0.0386 -0.33073,0.0634 -0.17363,0.0248 -0.30868,0.0248 -0.38034,0 -0.5898,-0.16537 -0.2067,-0.16812 -0.2067,-0.52916 0,-0.0882 0.011,-0.17364 0.0138,-0.0882 0.0358,-0.19843 l 0.3831,-1.65365 h -0.35003 l 0.0937,-0.41892 h 0.35002 l 0.20671,-0.8847 h 0.51814 l -0.20671,0.8847 z m 3.17775,0 -0.71106,3.07853 h -0.51815 l 0.0799,-0.34175 q -0.2949,0.20119 -0.55121,0.31419 -0.25356,0.113 -0.53744,0.113 -0.39687,0 -0.62012,-0.19844 -0.22324,-0.20119 -0.22324,-0.58428 0,-0.0937 0.011,-0.1819 0.0138,-0.0882 0.0358,-0.2012 l 0.46026,-1.99815 h 0.51814 l -0.40514,1.75286 q -0.0248,0.10749 -0.0468,0.24529 -0.0221,0.13781 -0.0221,0.21773 0,0.23702 0.11851,0.35554 0.12127,0.11851 0.41065,0.11851 0.20395,0 0.46578,-0.11851 0.26458,-0.11852 0.48783,-0.27286 l 0.52916,-2.29856 z m 7.29809,0.68075 q 0,0.091 -0.0138,0.19292 -0.011,0.10198 -0.0358,0.20671 l -0.46302,1.99815 h -0.51814 l 0.40514,-1.75286 q 0.0331,-0.14607 0.0524,-0.27009 0.022,-0.12403 0.022,-0.23152 0,-0.20946 -0.10473,-0.32246 -0.10474,-0.11299 -0.39964,-0.11299 -0.21773,0 -0.46026,0.12126 -0.24253,0.12127 -0.48231,0.28388 -0.006,0.0689 -0.0193,0.15709 -0.011,0.0882 -0.0276,0.1571 l -0.45475,1.97059 H 123.198 l 0.40514,-1.75286 q 0.0358,-0.17088 0.0579,-0.27836 0.0221,-0.11025 0.0221,-0.22325 0,-0.2508 -0.13781,-0.34175 -0.1378,-0.0937 -0.37207,-0.0937 -0.16536,0 -0.36931,0.0854 -0.20395,0.0827 -0.54295,0.30593 l -0.53192,2.29856 h -0.51814 l 0.71107,-3.07853 h 0.51814 l -0.0799,0.34175 q 0.28939,-0.20119 0.53468,-0.31419 0.24805,-0.113 0.5209,-0.113 0.31144,0 0.50436,0.13229 0.19568,0.13229 0.25907,0.36656 0.3638,-0.26458 0.65319,-0.38034 0.28939,-0.11851 0.57051,-0.11851 0.40514,0 0.60909,0.20119 0.20395,0.2012 0.20395,0.565 z m 2.97932,0.52365 q 0.0138,-0.0799 0.0193,-0.13504 0.006,-0.0551 0.006,-0.12127 0,-0.2949 -0.16261,-0.46027 -0.15985,-0.16536 -0.51538,-0.16536 -0.39137,0 -0.69453,0.24253 -0.30317,0.24254 -0.41066,0.63941 z m -1.03629,1.94579 q -0.63941,0 -1.00321,-0.30041 -0.3638,-0.30041 -0.3638,-0.87919 0,-0.84611 0.53468,-1.44969 0.53468,-0.60634 1.32291,-0.60634 0.52366,0 0.80202,0.26183 0.27836,0.25907 0.27836,0.73036 0,0.0827 -0.0248,0.26182 -0.0221,0.17915 -0.0744,0.41617 h -2.26825 q -0.0165,0.0799 -0.0248,0.1571 -0.006,0.0772 -0.006,0.14331 0,0.38861 0.23702,0.61185 0.23702,0.22049 0.67248,0.22049 0.30317,0 0.62288,-0.11851 0.32246,-0.11851 0.54019,-0.26734 h 0.0303 l -0.11299,0.55948 q -0.13781,0.0496 -0.24805,0.091 -0.11024,0.0413 -0.28112,0.0827 -0.17088,0.0413 -0.30317,0.0634 -0.13229,0.0221 -0.33073,0.0221 z m 5.3964,-4.36011 -0.99219,4.28845 h -0.51814 l 0.0744,-0.32246 q -0.35002,0.23978 -0.56499,0.32246 -0.21222,0.0854 -0.46302,0.0854 -0.43546,0 -0.69178,-0.27561 -0.25356,-0.2756 -0.25356,-0.80201 0,-0.44373 0.13781,-0.83785 0.1378,-0.39687 0.37482,-0.69453 0.23427,-0.2949 0.55397,-0.46578 0.31971,-0.17363 0.678,-0.17363 0.24529,0 0.45199,0.0524 0.20671,0.0524 0.38585,0.15709 l 0.30868,-1.33394 z m -0.92604,1.76389 q -0.18466,-0.0965 -0.36381,-0.14056 -0.17639,-0.0468 -0.37758,-0.0468 -0.28663,0 -0.51263,0.1378 -0.22324,0.1378 -0.38309,0.37758 -0.14607,0.21773 -0.226,0.52366 -0.0772,0.30592 -0.0772,0.59255 0,0.33624 0.14331,0.51539 0.14608,0.17639 0.47129,0.17639 0.23151,0 0.47129,-0.11576 0.24254,-0.11575 0.44649,-0.25356 z m 2.46393,-1.60679 -0.12403,0.53743 h -0.58429 l 0.12403,-0.53743 z m -0.27561,1.05282 -0.71107,3.07853 h -0.51814 l 0.71107,-3.07853 z m 3.80338,-1.20992 -0.99219,4.28845 h -0.51814 l 0.0744,-0.32246 q -0.35002,0.23978 -0.56499,0.32246 -0.21222,0.0854 -0.46302,0.0854 -0.43546,0 -0.69178,-0.27561 -0.25356,-0.2756 -0.25356,-0.80201 0,-0.44373 0.13781,-0.83785 0.1378,-0.39687 0.37482,-0.69453 0.23427,-0.2949 0.55398,-0.46578 0.3197,-0.17363 0.67799,-0.17363 0.24529,0 0.452,0.0524 0.2067,0.0524 0.38585,0.15709 l 0.30868,-1.33394 z m -0.92604,1.76389 q -0.18466,-0.0965 -0.3638,-0.14056 -0.17639,-0.0468 -0.37759,-0.0468 -0.28663,0 -0.51263,0.1378 -0.22324,0.1378 -0.38309,0.37758 -0.14607,0.21773 -0.226,0.52366 -0.0772,0.30592 -0.0772,0.59255 0,0.33624 0.14332,0.51539 0.14607,0.17639 0.47129,0.17639 0.23151,0 0.47128,-0.11576 0.24254,-0.11575 0.44649,-0.25356 z m 3.20807,0.90124 q -0.42444,0.0165 -0.75517,0.0661 -0.32797,0.0469 -0.54294,0.13781 -0.22325,0.091 -0.339,0.24804 -0.11576,0.15434 -0.11576,0.38585 0,0.19844 0.13505,0.30317 0.13505,0.10473 0.41893,0.10473 0.2508,0 0.50987,-0.11024 0.26183,-0.113 0.48782,-0.2701 z m -0.30041,1.29535 q -0.0744,0.0441 -0.20395,0.12678 -0.12678,0.0799 -0.25907,0.1378 -0.14056,0.0634 -0.3142,0.10473 -0.17363,0.0441 -0.39963,0.0441 -0.36656,0 -0.59531,-0.21222 -0.22875,-0.21497 -0.22875,-0.55948 0,-0.36656 0.15985,-0.61736 0.16261,-0.25356 0.47956,-0.41341 0.31143,-0.1571 0.74965,-0.226 0.44097,-0.0717 1.00321,-0.0882 0.0165,-0.0772 0.0276,-0.13229 0.011,-0.0579 0.011,-0.11852 0,-0.13229 -0.0524,-0.21497 -0.0524,-0.0827 -0.14883,-0.13229 -0.0965,-0.0496 -0.226,-0.0661 -0.12678,-0.0193 -0.28112,-0.0193 -0.23426,0 -0.53468,0.0772 -0.30041,0.0744 -0.48782,0.14883 h -0.0276 l 0.10197,-0.51814 q 0.1571,-0.0413 0.46027,-0.0937 0.30317,-0.0524 0.58153,-0.0524 0.57326,0 0.85989,0.17915 0.28664,0.17914 0.28664,0.56775 0,0.0744 -0.0138,0.15985 -0.011,0.0827 -0.0276,0.1571 l -0.48231,2.0891 h -0.51538 z"
       id="text3"
       aria-label="Tecnología a tu medida" /><g
       id="g1"><path
         style="fill:#2563eb;fill-opacity:1;stroke-width:0.264583"
         d="m 35.334733,114.13634 -6.44204,-2.57682 V 80.76654 l 5.28247,-5.28248 31.371051,0.05924 -1.415524,5.931867 c 0,0 -0.38652,1.61051 -1.67493,1.61051 -1.28842,0 -19.71267,-0.0644 -19.71267,-0.0644 l -0.12884,4.50943 h 16.29837 l -1.80377,5.92668 c 0,0 -0.3221,1.48167 -1.6105,1.48167 h -12.8841 v 12.175473 z"
         id="path23"
         sodipodi:nodetypes="ccccccsccccsccc"
         clip-path="url(#clipPath352)"
         inkscape:path-effect="#path-effect352"
         inkscape:original-d="m 35.334733,114.13634 -6.44204,-2.57682 V 80.76654 l 5.28247,-5.28248 31.371051,0.05924 -1.415524,5.931867 c 0,0 -0.38652,1.61051 -1.67493,1.61051 -1.28842,0 -19.71267,-0.0644 -19.71267,-0.0644 l -0.12884,4.50943 h 16.29837 l -1.80377,5.92668 c 0,0 -0.3221,1.48167 -1.6105,1.48167 h -12.8841 v 12.175473 z" /><path
         style="fill:#2563eb;fill-opacity:1;stroke-width:1.68215"
         d="m 42.102119,94.935435 h -6.997761 l -0.0068,-2.032411 7.080249,0.08755 z"
         id="path353" /><path
         style="fill:#2563eb;fill-opacity:1;stroke-width:1.5"
         d="m 34.169505,99.540472 -0.05168,0.109554 -0.10852,-0.06925 z"
         id="path354" /><path
         style="fill:#2563eb;fill-opacity:1;stroke-width:1.5"
         d="m 36.609666,95.162445 0.686263,-1.21543 -2.61276,1.174089 z"
         id="path355" /><path
         style="fill:#2563eb;fill-opacity:1;stroke-width:1.5"
         d="m 34.269757,91.383864 h -0.314193 l 0.243913,-0.276985 z"
         id="path356" /><path
         style="fill:#2563eb;fill-opacity:1;stroke-width:1.5"
         d="m 34.104393,91.491351 0.194303,-0.314192 -0.682129,-0.04961 0.450619,0.347266 z"
         id="path357" /><path
         style="fill:#2563eb;fill-opacity:1;stroke-width:1.5"
         d="m 34.856801,78.489561 -0.130224,0.0021 0.08682,-0.07752 z"
         id="path358" /><path
         style="fill:#2563eb;fill-opacity:1;stroke-width:1.5"
         d="m 34.803058,78.501964 0.05064,-0.07028 -0.135393,0.05478 z"
         id="path359" /><path
         style="fill:#2563eb;fill-opacity:1;stroke-width:1.5"
         d="m 33.45637,83.447398 h 0.22841 l -0.151929,0.09405 -0.101286,-0.07028 z"
         id="path360" /><path
         style="fill:#2563eb;fill-opacity:1;stroke-width:1.5"
         d="m 33.532851,83.38952 -0.04961,0.07751 0.159163,-0.0072 z"
         id="path361" /></g></g></svg>
